<?xml version="1.0" encoding="UTF-8"?>
<svg version="1.1" xmlns="http://www.w3.org/2000/svg" width="117" height="117">
<path d="M0 0 C38.61 0 77.22 0 117 0 C117 38.61 117 77.22 117 117 C78.39 117 39.78 117 0 117 C0 78.39 0 39.78 0 0 Z " fill="#F6DDCC" transform="translate(0,0)"/>
<path d="M0 0 C29.37 0 58.74 0 89 0 C89 12.87 89 25.74 89 39 C86.03 39.66 83.06 40.32 80 41 C80.02320312 39.87722656 80.04640625 38.75445312 80.0703125 37.59765625 C80.77371033 24.19192333 80.77371033 24.19192333 75.875 12.1875 C69.56069123 7.38313463 63.54448476 4.86788672 55.58886719 4.88647461 C53.96763947 4.88658791 53.96763947 4.88658791 52.31365967 4.88670349 C51.15312073 4.89186478 49.99258179 4.89702606 48.796875 4.90234375 C47.00748505 4.90446617 47.00748505 4.90446617 45.1819458 4.90663147 C41.37127171 4.91222962 37.56065634 4.92478181 33.75 4.9375 C31.16666752 4.94251524 28.58333411 4.9470781 26 4.95117188 C19.66664663 4.96219845 13.33332751 4.97893476 7 5 C7 6.32 7 7.64 7 9 C7.60328125 8.95359375 8.2065625 8.9071875 8.828125 8.859375 C9.62734375 8.82328125 10.4265625 8.7871875 11.25 8.75 C12.03890625 8.70359375 12.8278125 8.6571875 13.640625 8.609375 C16.98569821 9.16319507 17.9465403 10.31860871 20 13 C20.38969436 15.71969813 20.53774213 18.03334482 20.50170898 20.75024414 C20.50711197 21.52629501 20.51251495 22.30234589 20.51808167 23.10191345 C20.53057448 25.66338403 20.51407659 28.22373193 20.49609375 30.78515625 C20.49624871 32.56587279 20.49773719 34.34658968 20.50050354 36.12730408 C20.50188772 39.85723805 20.48932517 43.58678757 20.46655273 47.31665039 C20.43814731 52.10087717 20.44091069 56.88446614 20.45364285 61.66874027 C20.46059246 65.34473635 20.45281933 69.02058461 20.44038582 72.69656181 C20.43586578 74.46083446 20.43553934 76.22512295 20.43945122 77.98939705 C20.44235697 80.45298009 20.42588853 82.91567899 20.40405273 85.37915039 C20.40855438 86.11013947 20.41305603 86.84112854 20.41769409 87.5942688 C20.37437413 90.53110658 20.34054149 92.51818796 18.61610413 94.95799255 C16.4215031 96.37299458 14.89969582 96.29998677 12.3125 96.1875 C11.10013672 96.14689453 11.10013672 96.14689453 9.86328125 96.10546875 C9.24839844 96.07066406 8.63351562 96.03585938 8 96 C8 97.32 8 98.64 8 100 C21.86 100 35.72 100 50 100 C50 98.68 50 97.36 50 96 C49.25234375 96.04640625 48.5046875 96.0928125 47.734375 96.140625 C46.74953125 96.17671875 45.7646875 96.2128125 44.75 96.25 C43.77546875 96.29640625 42.8009375 96.3428125 41.796875 96.390625 C39 96 39 96 36.6875 94.3671875 C34.55828733 91.38037529 34.40544713 89.52800765 34.25 85.875 C34.19457031 84.65296875 34.13914063 83.4309375 34.08203125 82.171875 C33.90424626 74.78032939 33.94312917 67.39320772 34 60 C46.375 59.01 46.375 59.01 59 58 C58.175 59.65 57.35 61.3 56.5 63 C53.09752717 71.18144463 52.39833055 79.99597654 54.69921875 88.62109375 C57.09900375 93.97757589 61.04046708 97.57982145 66.328125 100.1171875 C73.65943775 102.53952183 81.77467874 101.22317577 89 99 C89 103.62 89 108.24 89 113 C59.63 113 30.26 113 0 113 C0 75.71 0 38.42 0 0 Z " fill="#242D69" transform="translate(1,2)"/>
<path d="M0 0 C1.24346191 -0.02964844 2.48692383 -0.05929688 3.76806641 -0.08984375 C12.81981829 -0.14834437 20.98278374 0.89616804 28.1875 6.75 C34.88100317 15.32605093 35.00690649 24.07440937 33.8125 34.625 C31.59401822 38.29402757 28.75231126 39.46073641 25.02734375 41.46484375 C21.76130932 43.58978774 19.3901037 46.1906323 16.8125 49.0625 C12.49627021 53.69052543 8.94363636 55.6355322 2.59765625 56.26171875 C-2.53923956 56.33821319 -7.67516838 56.33590115 -12.8125 56.3125 C-12.60058628 60.81595199 -12.37024101 65.31793991 -12.12280273 69.81958008 C-12.04123429 71.3508939 -11.96469865 72.88248447 -11.89331055 74.41430664 C-11.78978174 76.61697132 -11.66815524 78.81800443 -11.54296875 81.01953125 C-11.51470505 81.70400833 -11.48644135 82.38848541 -11.45732117 83.09370422 C-11.28120131 85.92665687 -11.11057725 87.89603745 -9.43554688 90.23632812 C-7.05306971 91.81604524 -4.95254112 91.83367405 -2.125 92 C-1.13113281 92.06574219 -0.13726562 92.13148437 0.88671875 92.19921875 C1.64597656 92.23660156 2.40523437 92.27398437 3.1875 92.3125 C3.1875 93.6325 3.1875 94.9525 3.1875 96.3125 C-10.6725 96.3125 -24.5325 96.3125 -38.8125 96.3125 C-38.8125 94.9925 -38.8125 93.6725 -38.8125 92.3125 C-38.18601562 92.26351562 -37.55953125 92.21453125 -36.9140625 92.1640625 C-35.68816406 92.05191406 -35.68816406 92.05191406 -34.4375 91.9375 C-33.62539063 91.86789063 -32.81328125 91.79828125 -31.9765625 91.7265625 C-29.60915809 91.48357412 -29.60915809 91.48357412 -27.8125 89.3125 C-27.60895158 86.76913957 -27.52927737 84.33419455 -27.5378418 81.78930664 C-27.53273087 81.01354782 -27.52761993 80.237789 -27.52235413 79.43852234 C-27.50842002 76.86648914 -27.50941776 74.29472277 -27.51171875 71.72265625 C-27.50783383 69.93908081 -27.50349959 68.15550629 -27.49873352 66.37193298 C-27.49126304 62.63016768 -27.4915685 58.88849671 -27.49682617 55.14672852 C-27.5026211 50.34679715 -27.48569335 45.54725162 -27.4624815 40.74738407 C-27.44776394 37.06283808 -27.44686976 33.37838541 -27.44999123 29.69381523 C-27.44947699 27.92394687 -27.44422011 26.15407343 -27.43417931 24.38423347 C-27.42187066 21.91092851 -27.42857264 19.43838034 -27.44018555 16.96508789 C-27.43254181 16.23095673 -27.42489807 15.49682556 -27.41702271 14.740448 C-27.45437343 10.80337612 -27.45437343 10.80337612 -29.19441223 7.36619568 C-31.31875971 5.98282464 -32.98314505 5.80738079 -35.5 5.625 C-36.71236328 5.52638672 -36.71236328 5.52638672 -37.94921875 5.42578125 C-38.56410156 5.38839844 -39.17898437 5.35101562 -39.8125 5.3125 C-39.8125 3.9925 -39.8125 2.6725 -39.8125 1.3125 C-26.54987271 0.60755967 -13.28057274 0.15831802 0 0 Z " fill="#FAF5F6" transform="translate(47.8125,5.6875)"/>
<path d="M0 0 C0.33 0 0.66 0 1 0 C1.0759439 7.35060015 1.12855502 14.70109947 1.16479492 22.05200195 C1.17989944 24.55366802 1.20038429 27.05530753 1.22631836 29.55688477 C1.26262775 33.14866684 1.27970975 36.74009941 1.29296875 40.33203125 C1.30845261 41.45398392 1.32393646 42.57593658 1.33988953 43.73188782 C1.34011612 44.77274033 1.34034271 45.81359283 1.34057617 46.88598633 C1.34723801 47.80309891 1.35389984 48.72021149 1.36076355 49.66511536 C0.9298979 52.45370528 0.24459985 53.33922909 -2 55 C-4.26171875 55.29296875 -4.26171875 55.29296875 -6.6875 55.1875 C-7.89986328 55.14689453 -7.89986328 55.14689453 -9.13671875 55.10546875 C-9.75160156 55.07066406 -10.36648437 55.03585938 -11 55 C-11 56.32 -11 57.64 -11 59 C2.86 59 16.72 59 31 59 C31 57.68 31 56.36 31 55 C30.25234375 55.04640625 29.5046875 55.0928125 28.734375 55.140625 C27.25710937 55.19476563 27.25710937 55.19476563 25.75 55.25 C24.77546875 55.29640625 23.8009375 55.3428125 22.796875 55.390625 C20 55 20 55 17.6875 53.3671875 C15.55828733 50.38037529 15.40544713 48.52800765 15.25 44.875 C15.19457031 43.65296875 15.13914063 42.4309375 15.08203125 41.171875 C14.90424626 33.78032939 14.94312917 26.39320772 15 19 C27.375 18.01 27.375 18.01 40 17 C39.175 18.65 38.35 20.3 37.5 22 C34.09752717 30.18144463 33.39833055 38.99597654 35.69921875 47.62109375 C38.09900375 52.97757589 42.04046708 56.57982145 47.328125 59.1171875 C54.65943775 61.53952183 62.77467874 60.22317577 70 58 C70 62.62 70 67.24 70 72 C40.96 72 11.92 72 -18 72 C-18 60.45 -18 48.9 -18 37 C-17.67 37 -17.34 37 -17 37 C-16.93941406 38.28777344 -16.87882812 39.57554688 -16.81640625 40.90234375 C-16.73201753 42.58074159 -16.6473687 44.25912636 -16.5625 45.9375 C-16.52318359 46.78763672 -16.48386719 47.63777344 -16.44335938 48.51367188 C-16.40146484 49.32255859 -16.35957031 50.13144531 -16.31640625 50.96484375 C-16.26141968 52.08814087 -16.26141968 52.08814087 -16.20532227 53.23413086 C-16.18228937 55.02461326 -16.18228937 55.02461326 -15 56 C-14.34 55.01 -13.68 54.02 -13 53 C-10.01331342 51.86711888 -7.16738721 51.91201702 -4 52 C-4 51.34 -4 50.68 -4 50 C-3.34 50 -2.68 50 -2 50 C-2.33 49.34 -2.66 48.68 -3 48 C-3 45 -3 45 -2 44 C-1.85297413 41.94713234 -1.77236375 39.88945872 -1.71875 37.83203125 C-1.68136719 36.54490234 -1.64398437 35.25777344 -1.60546875 33.93164062 C-1.5699156 32.55860397 -1.53476094 31.18555694 -1.5 29.8125 C-1.23498112 19.8448453 -0.79768185 9.9390771 0 0 Z " fill="#1C1D2F" transform="translate(20,43)"/>
<path d="M0 0 C0 3.63 0 7.26 0 11 C1.010625 11.061875 2.02125 11.12375 3.0625 11.1875 C8.55864411 11.97903394 12.33284755 15.05498881 15.875 19.1875 C18.12464254 24.81160634 18.59164089 29.99499476 16.875 35.8125 C13.91695282 40.8411802 10.29633858 44.48423917 5 47 C2.1875 47.1875 2.1875 47.1875 0 47 C0 49.31 0 51.62 0 54 C-4.75793184 56.53756365 -9.74947375 56.92559979 -15 56 C-19.19718698 53.80370663 -21.50574546 50.81312844 -23.9375 46.8125 C-27.31634941 34.68839329 -23.98613541 24.00875436 -18.24511719 13.32641602 C-14.18231602 6.16531756 -8.73192928 0 0 0 Z " fill="#232746" transform="translate(90,44)"/>
<path d="M0 0 C22.14179104 0 22.14179104 0 28.5 6 C32.57506374 10.89007648 32.24307986 15.12017933 32.3125 21.1875 C32.34150391 22.01314453 32.37050781 22.83878906 32.40039062 23.68945312 C32.47125234 30.60664708 30.7491082 35.59538668 26.39453125 40.98828125 C18.01561936 48.00174083 11.29598093 48 0 48 C0 32.16 0 16.32 0 0 Z " fill="#29347D" transform="translate(35,10)"/>
<path d="M0 0 C4.05921121 -0.17287952 7.12255999 0.06331442 10.85546875 1.71484375 C15.60014547 3.76607773 19.9368287 2.99954585 24.91796875 2.15234375 C23.86541233 7.41512584 22.58053674 12.52722177 20.98046875 17.65234375 C20.50287109 19.18375 20.50287109 19.18375 20.015625 20.74609375 C19.47228516 21.9371875 19.47228516 21.9371875 18.91796875 23.15234375 C17.92796875 23.48234375 16.93796875 23.81234375 15.91796875 24.15234375 C15.71171875 23.57484375 15.50546875 22.99734375 15.29296875 22.40234375 C12.71421061 18.1825577 8.67352881 16.23609533 4.04296875 14.90234375 C3.01171875 14.65484375 1.98046875 14.40734375 0.91796875 14.15234375 C0.91796875 10.52234375 0.91796875 6.89234375 0.91796875 3.15234375 C-0.27828125 3.54421875 -1.47453125 3.93609375 -2.70703125 4.33984375 C-3.71636719 4.67048828 -3.71636719 4.67048828 -4.74609375 5.0078125 C-11.01285503 8.07831594 -14.27026142 12.34908424 -17.33203125 18.40234375 C-17.67556641 19.06911133 -18.01910156 19.73587891 -18.37304688 20.42285156 C-20.78305425 25.2405265 -22.63473208 29.73613418 -23.08203125 35.15234375 C-23.16195312 36.04566406 -23.241875 36.93898437 -23.32421875 37.859375 C-23.68775634 45.67543316 -21.99835717 50.72137208 -16.95703125 56.65234375 C-12.60354873 58.92372593 -8.88691528 58.95432004 -4.08203125 58.15234375 C2.66847673 55.8228733 7.06604988 52.24094159 11.91796875 47.15234375 C12.90796875 47.15234375 13.89796875 47.15234375 14.91796875 47.15234375 C14.16491364 51.68058302 11.91922034 53.55309243 8.48046875 56.40234375 C0.2246618 62.04045581 -9.15627332 64.66185643 -19.08203125 63.15234375 C-25.27251724 61.37766817 -29.59247719 57.49780713 -33.08203125 52.15234375 C-35.21034035 47.97590158 -35.46678548 44.0133843 -35.45703125 39.40234375 C-35.45687012 38.69295654 -35.45670898 37.98356934 -35.45654297 37.25268555 C-35.32782139 31.32675038 -33.94427217 27.21871911 -31.08203125 22.15234375 C-30.81132813 21.36214844 -30.540625 20.57195313 -30.26171875 19.7578125 C-26.6752197 11.83663746 -18.07773671 5.33925084 -10.28515625 1.9453125 C-6.80102145 0.69127107 -3.66661204 0.26828869 0 0 Z " fill="#EA6C2D" transform="translate(89.08203125,40.84765625)"/>
<path d="M0 0 C29.37 0 58.74 0 89 0 C89 12.87 89 25.74 89 39 C86.03 39.66 83.06 40.32 80 41 C80.02320312 39.87722656 80.04640625 38.75445312 80.0703125 37.59765625 C80.77371033 24.19192333 80.77371033 24.19192333 75.875 12.1875 C69.56069123 7.38313463 63.54448476 4.86788672 55.58886719 4.88647461 C53.96763947 4.88658791 53.96763947 4.88658791 52.31365967 4.88670349 C51.15312073 4.89186478 49.99258179 4.89702606 48.796875 4.90234375 C47.00748505 4.90446617 47.00748505 4.90446617 45.1819458 4.90663147 C41.37127171 4.91222962 37.56065634 4.92478181 33.75 4.9375 C31.16666752 4.94251524 28.58333411 4.9470781 26 4.95117188 C19.66664663 4.96219845 13.33332751 4.97893476 7 5 C7 5.99 7 6.98 7 8 C5.35 7.67 3.7 7.34 2 7 C2.020625 6.195625 2.04125 5.39125 2.0625 4.5625 C2.29633621 2.06645115 2.29633621 2.06645115 1 1 C1 37.96 1 74.92 1 113 C0.67 113 0.34 113 0 113 C0 75.71 0 38.42 0 0 Z " fill="#5B4768" transform="translate(1,2)"/>
<path d="M0 0 C-0.3609375 0.680625 -0.721875 1.36125 -1.09375 2.0625 C-5.2581785 10.76152842 -6.220027 18.46345564 -5 28 C-4.03973574 30.01937925 -3.048637 32.02506698 -2 34 C-2.33 34.66 -2.66 35.32 -3 36 C-4.485 36.495 -4.485 36.495 -6 37 C-6 36.01 -6 35.02 -6 34 C-6.99 34 -7.98 34 -9 34 C-8.34 35.32 -7.68 36.64 -7 38 C-9.08218362 38.10832169 -11.16599129 38.18573541 -13.25 38.25 C-14.41015625 38.29640625 -15.5703125 38.3428125 -16.765625 38.390625 C-20 38 -20 38 -22.375 36.3671875 C-24.42486342 33.38108839 -24.59638292 31.48500144 -24.75 27.875 C-24.80542969 26.65296875 -24.86085937 25.4309375 -24.91796875 24.171875 C-25.09571817 16.7818084 -25.07542082 9.3912401 -25 2 C-21.77125066 1.66254072 -18.5419413 1.33076631 -15.3125 1 C-13.94448242 0.85691406 -13.94448242 0.85691406 -12.54882812 0.7109375 C-11.21948242 0.57558594 -11.21948242 0.57558594 -9.86328125 0.4375 C-9.05157471 0.35371094 -8.23986816 0.26992188 -7.40356445 0.18359375 C-4.92615534 -0.00564055 -2.4836252 -0.03092452 0 0 Z " fill="#222450" transform="translate(60,60)"/>
<path d="M0 0 C0 3.3 0 6.6 0 10 C-0.99 10.33 -1.98 10.66 -3 11 C1.455 12.98 1.455 12.98 6 15 C5.67 16.98 5.34 18.96 5 21 C5.66 21 6.32 21 7 21 C7 26.28 7 31.56 7 37 C8.65 37.66 10.3 38.32 12 39 C10.8125 40.5625 10.8125 40.5625 9 42 C6.3125 41.6875 6.3125 41.6875 4 41 C4 41.66 4 42.32 4 43 C3.34 43 2.68 43 2 43 C2 42.34 2 41.68 2 41 C-0.64 41 -3.28 41 -6 41 C-6 40.34 -6 39.68 -6 39 C-6.5775 38.9175 -7.155 38.835 -7.75 38.75 C-10.74522583 37.75159139 -12.11085148 36.51886469 -14 34 C-14.125 31.4375 -14.125 31.4375 -13 29 C-8.13793103 26 -8.13793103 26 -5 26 C-5 23.36 -5 20.72 -5 18 C-4.67 19.32 -4.34 20.64 -4 22 C-0.87525373 20.36526484 -0.87525373 20.36526484 -0.3125 17.875 C-0.209375 17.25625 -0.10625 16.6375 0 16 C-1.11375 16.185625 -2.2275 16.37125 -3.375 16.5625 C-7 17 -7 17 -9 16 C-9.33 15.34 -9.66 14.68 -10 14 C-12.31 14 -14.62 14 -17 14 C-13.82084882 7.37676838 -7.98708623 0 0 0 Z " fill="#24417B" transform="translate(89,44)"/>
<path d="M0 0 C4.74467672 2.05123398 9.08135995 1.2847021 14.0625 0.4375 C13.00994358 5.70028209 11.72506799 10.81237802 10.125 15.9375 C9.64740234 17.46890625 9.64740234 17.46890625 9.16015625 19.03125 C8.61681641 20.22234375 8.61681641 20.22234375 8.0625 21.4375 C7.0725 21.7675 6.0825 22.0975 5.0625 22.4375 C4.85625 21.86 4.65 21.2825 4.4375 20.6875 C1.85874186 16.46771395 -2.18193994 14.52125158 -6.8125 13.1875 C-7.84375 12.94 -8.875 12.6925 -9.9375 12.4375 C-9.9375 8.8075 -9.9375 5.1775 -9.9375 1.4375 C-11.13375 1.829375 -12.33 2.22125 -13.5625 2.625 C-14.57183594 2.95564453 -14.57183594 2.95564453 -15.6015625 3.29296875 C-22.15018239 6.50157348 -25.19451183 10.91089955 -28.3125 17.25 C-28.66699219 17.94287109 -29.02148438 18.63574219 -29.38671875 19.34960938 C-30.24911269 21.03943534 -31.09505422 22.73764112 -31.9375 24.4375 C-32.91358217 21.50925348 -33.01976668 19.48136724 -32.9375 16.4375 C-31.9475 16.1075 -30.9575 15.7775 -29.9375 15.4375 C-29.9375 13.4575 -29.9375 11.4775 -29.9375 9.4375 C-28.9475 9.4375 -27.9575 9.4375 -26.9375 9.4375 C-26.6075 8.4475 -26.2775 7.4575 -25.9375 6.4375 C-28.06114481 6.21140663 -28.06114481 6.21140663 -29.5625 7.9375 C-30.243125 8.68 -30.243125 8.68 -30.9375 9.4375 C-31.5975 9.1075 -32.2575 8.7775 -32.9375 8.4375 C-24.06331488 0.45073339 -11.78700587 -5.21485714 0 0 Z " fill="#E26E39" transform="translate(99.9375,42.5625)"/>
<path d="M0 0 C0.33 0 0.66 0 1 0 C1 3.63 1 7.26 1 11 C2.010625 11.061875 3.02125 11.12375 4.0625 11.1875 C9.55864411 11.97903394 13.33284755 15.05498881 16.875 19.1875 C19.07123376 24.67808439 19.95795386 30.47280395 17.6875 36.0625 C16 39 16 39 14 40 C14 38.68 14 37.36 14 36 C13.4225 36.350625 12.845 36.70125 12.25 37.0625 C9.60213494 38.16577711 8.66814674 37.80156509 6 37 C5.97274659 35.2709226 5.95349013 33.54171824 5.9375 31.8125 C5.92009766 30.36810547 5.92009766 30.36810547 5.90234375 28.89453125 C5.99513378 26.14423487 6.37888315 23.67520409 7 21 C6.34 21 5.68 21 5 21 C5 19.02 5 17.04 5 15 C1.03302114 13.19682779 -2.6822542 12.50797009 -7 12 C-4.35261084 10.5393715 -3.10551666 10 0 10 C0 6.7 0 3.4 0 0 Z " fill="#55844F" transform="translate(89,44)"/>
<path d="M0 0 C1.16257324 0.01047363 2.32514648 0.02094727 3.52294922 0.03173828 C5.40820312 0.04140625 5.40820312 0.04140625 7.33154297 0.05126953 C9.30960938 0.07640625 9.30960938 0.07640625 11.32763672 0.10205078 C12.66747393 0.11208096 14.00731823 0.12120674 15.34716797 0.12939453 C18.63250244 0.15303003 21.91748137 0.18597844 25.20263672 0.22705078 C25.50923226 9.37949549 25.69672675 17.57501833 22.20263672 26.22705078 C20.40982509 23.53783334 19.4308654 21.35173869 18.32763672 18.35205078 C16.50260866 13.71512763 14.73557989 9.69779198 10.26513672 7.10205078 C9.58451172 6.81330078 8.90388672 6.52455078 8.20263672 6.22705078 C7.46013672 5.71142578 6.71763672 5.19580078 5.95263672 4.66455078 C2.31052227 2.76071823 -0.71373127 2.57312129 -4.79736328 2.22705078 C-2.79736328 0.22705078 -2.79736328 0.22705078 0 0 Z " fill="#2B3680" transform="translate(63.79736328125,2.77294921875)"/>
<path d="M0 0 C0.33 0 0.66 0 1 0 C1 15.51 1 31.02 1 47 C15.80317582 46.26088203 15.80317582 46.26088203 27.5625 38.375 C28.38494784 37.2572519 29.19895531 36.13318518 30 35 C30.66 34.34 31.32 33.68 32 33 C32.66 33 33.32 33 34 33 C33.34 34.65 32.68 36.3 32 38 C32.99 38.33 33.98 38.66 35 39 C29.38012018 45.73888243 25.05966437 50.07007035 16.1171875 50.90625 C11.07050383 51.05802996 6.04764584 51.16109508 1 51 C-0.7938053 47.92097744 -1.2305974 45.77822333 -1.13525391 42.23144531 C-1.11508209 41.29077209 -1.09491028 40.35009888 -1.0741272 39.38092041 C-1.04193085 38.37349792 -1.0097345 37.36607544 -0.9765625 36.328125 C-0.95153656 35.29057068 -0.92651062 34.25301636 -0.90072632 33.184021 C-0.81859984 29.87234474 -0.72198083 26.56127132 -0.625 23.25 C-0.566753 21.00393082 -0.50944988 18.75783695 -0.453125 16.51171875 C-0.31303198 11.00747918 -0.16104043 5.50366437 0 0 Z " fill="#FEF7F4" transform="translate(34,11)"/>
<path d="M0 0 C0 4.62 0 9.24 0 14 C-29.04 14 -58.08 14 -88 14 C-88 10.37 -88 6.74 -88 3 C-87.67 3 -87.34 3 -87 3 C-86.67 5.64 -86.34 8.28 -86 11 C-58.28 11.33 -30.56 11.66 -2 12 C-2 8.7 -2 5.4 -2 2 C-2.99 1.505 -2.99 1.505 -4 1 C-2 0 -2 0 0 0 Z " fill="#2D1720" transform="translate(90,101)"/>
<path d="M0 0 C0.99 0 1.98 0 3 0 C2.24694489 4.52823927 0.00125159 6.40074868 -3.4375 9.25 C-11.67302109 14.87425831 -21.09288011 17.5426801 -31 16 C-35.76845253 14.48486266 -39.45227426 12.45852004 -42 8 C-39.33333333 9.33333333 -36.66666667 10.66666667 -34 12 C-34 9.36 -34 6.72 -34 4 C-32.85373678 4.97866338 -31.70800212 5.95794587 -30.5625 6.9375 C-29.92441406 7.48277344 -29.28632812 8.02804688 -28.62890625 8.58984375 C-27.73008851 9.36795695 -26.84063472 10.15936528 -26 11 C-18.29330983 12.08983497 -12.40863891 10.2834944 -6 6 C-3.87932085 4.09362106 -1.97013127 2.06623523 0 0 Z " fill="#DD703F" transform="translate(101,88)"/>
<path d="M0 0 C0 0.33 0 0.66 0 1 C1.051875 1.28875 2.10375 1.5775 3.1875 1.875 C6.22818711 2.77225193 9.08712344 3.76423419 12 5 C11.34 5.66 10.68 6.32 10 7 C8.77676025 6.51104248 7.55352051 6.02208496 6.29321289 5.51831055 C0.29933055 3.5308665 -5.42985386 3.62158999 -11.69140625 3.70703125 C-12.87725815 3.71127609 -14.06311005 3.71552094 -15.28489685 3.71989441 C-19.04433626 3.73658567 -22.80322467 3.77422112 -26.5625 3.8125 C-29.12303909 3.82755914 -31.68358665 3.84124538 -34.24414062 3.85351562 C-40.49627934 3.88645793 -46.74810029 3.9365618 -53 4 C-53 4.99 -53 5.98 -53 7 C-54.65 6.67 -56.3 6.34 -58 6 C-58 4.35 -58 2.7 -58 1 C-51.50793035 0.85589268 -45.01582091 0.71368937 -38.52368164 0.57275391 C-36.31924515 0.52468057 -34.11481782 0.4761857 -31.91040039 0.42724609 C-28.72544685 0.3566135 -25.54046251 0.28754218 -22.35546875 0.21875 C-21.38417526 0.19687622 -20.41288177 0.17500244 -19.41215515 0.15246582 C-12.94046057 0.0146485 -6.47308551 -0.02480317 0 0 Z " fill="#3C3570" transform="translate(61,3)"/>
<path d="M0 0 C0 2.97 0 5.94 0 9 C-12.9019095 9.68912276 -12.9019095 9.68912276 -16.8125 7 C-17.534375 6.34 -18.25625 5.68 -19 5 C-18.875 2.6875 -18.875 2.6875 -18 0 C-12.54541227 -4.33569794 -5.92626025 -2.96313012 0 0 Z " fill="#1248A0" transform="translate(94,73)"/>
<path d="M0 0 C22.14179104 0 22.14179104 0 28.5 6 C32.57506374 10.89007648 32.24307986 15.12017933 32.3125 21.1875 C32.34150391 22.01314453 32.37050781 22.83878906 32.40039062 23.68945312 C32.46054973 29.56190739 31.42791292 34.137404 28 39 C27.01 39.495 27.01 39.495 26 40 C26 39.01 26 38.02 26 37 C26.66 37 27.32 37 28 37 C28.78166347 31.43064781 29.13905491 25.93741607 29.25 20.3125 C29.27578125 19.07113281 29.3015625 17.82976563 29.328125 16.55078125 C28.96280435 12.59748995 28.1780403 10.30967428 26 7 C19.09443658 2.37316078 19.09443658 2.37316078 1 2 C1 17.18 1 32.36 1 48 C0.67 48 0.34 48 0 48 C0 32.16 0 16.32 0 0 Z " fill="#60426C" transform="translate(35,10)"/>
<path d="M0 0 C4.02946487 1.83157494 5.87439442 4.13099736 8.3125 7.6875 C10.61971063 10.99234621 10.61971063 10.99234621 14.15625 12.515625 C16.11045242 12.44482056 18.0581348 12.23039079 20 12 C22 14 22 14 22.125 16.625 C22.08375 17.40875 22.0425 18.1925 22 19 C12.58997722 20.33257403 12.58997722 20.33257403 8 19 C8 18.34 8 17.68 8 17 C6.68 17 5.36 17 4 17 C2.76923077 10.6 2.76923077 10.6 3.9375 7.5625 C4.288125 7.046875 4.63875 6.53125 5 6 C4.34 6 3.68 6 3 6 C2.67 6.99 2.34 7.98 2 9 C1.34 8.67 0.68 8.34 0 8 C0 5.36 0 2.72 0 0 Z " fill="#1A2136" transform="translate(67,78)"/>
<path d="M0 0 C8.25 0 16.5 0 25 0 C25 36.63 25 73.26 25 111 C24.67 111 24.34 111 24 111 C23.67 91.53 23.34 72.06 23 52 C22.34 52 21.68 52 21 52 C21.99 48.37 22.98 44.74 24 41 C22.35 41.66 20.7 42.32 19 43 C12.56363636 42.56363636 12.56363636 42.56363636 10 40 C10.67546875 40.02320313 11.3509375 40.04640625 12.046875 40.0703125 C13.38492188 40.09738281 13.38492188 40.09738281 14.75 40.125 C16.07257813 40.15980469 16.07257813 40.15980469 17.421875 40.1953125 C20.35780081 40.13640771 20.35780081 40.13640771 24 38 C24 25.79 24 13.58 24 1 C16.08 1 8.16 1 0 1 C0 0.67 0 0.34 0 0 Z " fill="#FAD2BC" transform="translate(90,2)"/>
<path d="M0 0 C0.66 0.33 1.32 0.66 2 1 C1.67 1.66 1.34 2.32 1 3 C3.97 3 6.94 3 10 3 C9.67 4.65 9.34 6.3 9 8 C8.01 8.33 7.02 8.66 6 9 C5.9175 9.61875 5.835 10.2375 5.75 10.875 C5 13 5 13 1.875 14.8125 C-1.95598589 16.28778649 -4.99901287 15.89818078 -9 15 C-9.58353108 11.6655367 -9.46121107 9.66457973 -7.51171875 6.85546875 C-2.73624402 1.36812201 -2.73624402 1.36812201 0 0 Z " fill="#538A59" transform="translate(79,57)"/>
<path d="M0 0 C3.43462183 -0.42056594 5.99485082 -0.63981991 8.98828125 1.265625 C13.59950361 5.19900722 13.59950361 5.19900722 15 8 C15.06996014 9.70702735 15.08440154 11.41668003 15.0625 13.125 C15.05347656 14.03507812 15.04445313 14.94515625 15.03515625 15.8828125 C15.02355469 16.58148438 15.01195313 17.28015625 15 18 C14.50371094 17.66226563 14.00742188 17.32453125 13.49609375 16.9765625 C9.04465363 14.05398512 5.19177746 12.18978233 0 11 C0 7.37 0 3.74 0 0 Z " fill="#F2E0C5" transform="translate(90,44)"/>
<path d="M0 0 C0.33 0 0.66 0 1 0 C1.0759439 7.35060015 1.12855502 14.70109947 1.16479492 22.05200195 C1.17989944 24.55366802 1.20038429 27.05530753 1.22631836 29.55688477 C1.26262775 33.14866684 1.27970975 36.74009941 1.29296875 40.33203125 C1.30845261 41.45398392 1.32393646 42.57593658 1.33988953 43.73188782 C1.34022942 45.29316658 1.34022942 45.29316658 1.34057617 46.88598633 C1.34723801 47.80309891 1.35389984 48.72021149 1.36076355 49.66511536 C0.9298979 52.45370528 0.24459985 53.33922909 -2 55 C-4.26171875 55.29296875 -4.26171875 55.29296875 -6.6875 55.1875 C-7.89986328 55.14689453 -7.89986328 55.14689453 -9.13671875 55.10546875 C-9.75160156 55.07066406 -10.36648438 55.03585938 -11 55 C-11 56.32 -11 57.64 -11 59 C-2.42 59 6.16 59 15 59 C15 59.33 15 59.66 15 60 C6.09 60 -2.82 60 -12 60 C-12 57.69 -12 55.38 -12 53 C-9.07175348 52.02391783 -7.04386724 51.91773332 -4 52 C-4 51.34 -4 50.68 -4 50 C-3.34 50 -2.68 50 -2 50 C-2.33 49.34 -2.66 48.68 -3 48 C-3 45 -3 45 -2 44 C-1.85297413 41.94713234 -1.77236375 39.88945872 -1.71875 37.83203125 C-1.68136719 36.54490234 -1.64398438 35.25777344 -1.60546875 33.93164062 C-1.5699156 32.55860397 -1.53476094 31.18555694 -1.5 29.8125 C-1.23498112 19.8448453 -0.79768185 9.9390771 0 0 Z " fill="#422943" transform="translate(20,43)"/>
<path d="M0 0 C2.82266438 0.30242833 3.93839875 0.94032379 6 2.9375 C8.68482518 7.04863855 10.32157952 11.40219922 12 16 C12.99 13.69 13.98 11.38 15 9 C15.33 9 15.66 9 16 9 C16.33 16.26 16.66 23.52 17 31 C14.03 31.66 11.06 32.32 8 33 C8.02320312 31.87722656 8.04640625 30.75445312 8.0703125 29.59765625 C8.85610798 15.94999 8.85610798 15.94999 3.4375 4.0625 C2.633125 3.381875 1.82875 2.70125 1 2 C0.67 1.34 0.34 0.68 0 0 Z " fill="#2A357E" transform="translate(73,10)"/>
<path d="M0 0 C2.64 0 5.28 0 8 0 C8 0.33 8 0.66 8 1 C5.69 1 3.38 1 1 1 C1.33 14.86 1.66 28.72 2 43 C5.96 43 9.92 43 14 43 C13.67 40.69 13.34 38.38 13 36 C15.97 36.66 18.94 37.32 22 38 C22 36.35 22 34.7 22 33 C24.475 32.505 24.475 32.505 27 32 C27 32.99 27 33.98 27 35 C26.34 35 25.68 35 25 35 C24.95875 35.7425 24.9175 36.485 24.875 37.25 C23.61394336 41.21332086 21.60861024 42.06204265 18 44 C11.53437977 46.53553735 7.57219565 46 0 46 C0 30.82 0 15.64 0 0 Z " fill="#382F67" transform="translate(36,12)"/>
<path d="M0 0 C0 3.3 0 6.6 0 10 C-0.99 10.33 -1.98 10.66 -3 11 C-2.01 11.33 -1.02 11.66 0 12 C0 12.66 0 13.32 0 14 C-2.64 14.33 -5.28 14.66 -8 15 C-8 14.34 -8 13.68 -8 13 C-8.99 13.495 -8.99 13.495 -10 14 C-12.3329866 14.04022391 -14.66706666 14.04320247 -17 14 C-13.82084882 7.37676838 -7.98708623 0 0 0 Z " fill="#20304F" transform="translate(89,44)"/>
<path d="M0 0 C15.84 0 31.68 0 48 0 C48 0.33 48 0.66 48 1 C32.49 1 16.98 1 1 1 C2.64856825 5.12403473 2.64856825 5.12403473 6 7 C6.6875 9.125 6.6875 9.125 7 11 C6.18958252 11.38518799 5.37916504 11.77037598 4.54418945 12.16723633 C1.79236879 13.74267991 1.79236879 13.74267991 1.34057617 16.4519043 C1.32486572 17.39976807 1.30915527 18.34763184 1.29296875 19.32421875 C1.26396484 20.35224609 1.23496094 21.38027344 1.20507812 22.43945312 C1.19927734 23.51130859 1.19347656 24.58316406 1.1875 25.6875 C1.16236328 26.77095703 1.13722656 27.85441406 1.11132812 28.97070312 C1.05236785 31.64749983 1.01615337 34.32265815 1 37 C0.67 37 0.34 37 0 37 C0 24.79 0 12.58 0 0 Z " fill="#322F6F" transform="translate(2,3)"/>
<path d="M0 0 C-0.76567866 1.58583248 -1.53777965 3.16856494 -2.3125 4.75 C-2.74175781 5.63171875 -3.17101562 6.5134375 -3.61328125 7.421875 C-4.90103146 9.81600215 -6.30915754 11.87776958 -8 14 C-8.94693195 10.2983569 -9.30443767 8.60887535 -7.5625 5.125 C-7.046875 4.42375 -6.53125 3.7225 -6 3 C-7.9490625 3.2784375 -7.9490625 3.2784375 -9.9375 3.5625 C-14.80547826 4.11884037 -19.15954005 3.69149428 -24 3 C-24 8.61 -24 14.22 -24 20 C-24.33 20 -24.66 20 -25 20 C-25 14.06 -25 8.12 -25 2 C-21.7711264 1.66359643 -18.54195168 1.33076737 -15.3125 1 C-13.94448242 0.85691406 -13.94448242 0.85691406 -12.54882812 0.7109375 C-11.21948242 0.57558594 -11.21948242 0.57558594 -9.86328125 0.4375 C-9.05157471 0.35371094 -8.23986816 0.26992188 -7.40356445 0.18359375 C-4.92615534 -0.00564055 -2.4836252 -0.03092452 0 0 Z " fill="#55426A" transform="translate(60,60)"/>
<path d="M0 0 C3.375 0.3125 3.375 0.3125 7 1 C9.31819207 4.47728811 9.24624283 5.82482925 9.23046875 9.92578125 C9.22917969 11.10946289 9.22789063 12.29314453 9.2265625 13.51269531 C9.21367187 14.76663086 9.20078125 16.02056641 9.1875 17.3125 C9.17783203 19.21080566 9.17783203 19.21080566 9.16796875 21.14746094 C9.09945624 29.46530795 8.87131695 37.722489 8 46 C7.67 46 7.34 46 7 46 C7 32.47 7 18.94 7 5 C5.68 4.67 4.36 4.34 3 4 C3 3.01 3 2.02 3 1 C2.01 0.67 1.02 0.34 0 0 Z " fill="#4E3D6A" transform="translate(12,11)"/>
<path d="M0 0 C0.763125 0.309375 1.52625 0.61875 2.3125 0.9375 C4.18789677 1.67893593 6.08684652 2.36228217 8 3 C8 3.66 8 4.32 8 5 C9.65 5.33 11.3 5.66 13 6 C12.67 7.32 12.34 8.64 12 10 C6.8876156 11.21310816 6.8876156 11.21310816 4 11 C1.35972966 9.28075419 0.63435572 7.84694222 -1 5 C-0.8125 2.125 -0.8125 2.125 0 0 Z " fill="#52894C" transform="translate(75,80)"/>
<path d="M0 0 C0 0.33 0 0.66 0 1 C-2.31 1.66 -4.62 2.32 -7 3 C-7 4.65 -7 6.3 -7 8 C-6.34 8 -5.68 8 -5 8 C-5 8.66 -5 9.32 -5 10 C-2.36 10 0.28 10 3 10 C3 8.35 3 6.7 3 5 C3.66 5 4.32 5 5 5 C5 6.98 5 8.96 5 11 C-7.9019095 11.68912276 -7.9019095 11.68912276 -11.8125 9 C-12.534375 8.34 -13.25625 7.68 -14 7 C-13.875 4.6875 -13.875 4.6875 -13 2 C-8.45623229 -1.24554837 -5.34831616 -1.17662956 0 0 Z " fill="#20438F" transform="translate(89,71)"/>
<path d="M0 0 C-0.33 1.98 -0.66 3.96 -1 6 C-0.34 6 0.32 6 1 6 C0.67 8.31 0.34 10.62 0 13 C-1.32 12.34 -2.64 11.68 -4 11 C-4 8.36 -4 5.72 -4 3 C-4.99 3.495 -4.99 3.495 -6 4 C-6 3.01 -6 2.02 -6 1 C-7.670625 1.2784375 -7.670625 1.2784375 -9.375 1.5625 C-13 2 -13 2 -15 1 C-14 -1 -14 -1 -12.375 -1.625 C-7.57473902 -2.38293594 -4.11642919 -2.74428613 0 0 Z " fill="#26426D" transform="translate(95,59)"/>
<path d="M0 0 C0.99 0.99 1.98 1.98 3 3 C2.01 3.66 1.02 4.32 0 5 C-0.33 5.99 -0.66 6.98 -1 8 C-0.01 7.67 0.98 7.34 2 7 C2.66 7.33 3.32 7.66 4 8 C3.25 14.625 3.25 14.625 1 18 C-0.32 17.67 -1.64 17.34 -3 17 C-3.02715383 15.25008666 -3.04646551 13.50005055 -3.0625 11.75 C-3.07410156 10.77546875 -3.08570312 9.8009375 -3.09765625 8.796875 C-3.01195577 6.34241322 -2.70706066 4.33831086 -2 2 C-1.34 2 -0.68 2 0 2 C0 1.34 0 0.68 0 0 Z " fill="#5DA34D" transform="translate(98,64)"/>
<path d="M0 0 C0.33 0 0.66 0 1 0 C1 15.51 1 31.02 1 47 C3.31 47 5.62 47 8 47 C6.02 47.495 6.02 47.495 4 48 C4 48.66 4 49.32 4 50 C6.97 50 9.94 50 13 50 C13 50.33 13 50.66 13 51 C9.04 51 5.08 51 1 51 C-0.89413854 47.21172293 -1.24149566 46.18363862 -1.13525391 42.23144531 C-1.11508209 41.29077209 -1.09491028 40.35009888 -1.0741272 39.38092041 C-1.04193085 38.37349792 -1.0097345 37.36607544 -0.9765625 36.328125 C-0.95153656 35.29057068 -0.92651062 34.25301636 -0.90072632 33.184021 C-0.81859984 29.87234474 -0.72198083 26.56127132 -0.625 23.25 C-0.566753 21.00393082 -0.50944988 18.75783695 -0.453125 16.51171875 C-0.31303198 11.00747918 -0.16104043 5.50366437 0 0 Z " fill="#EEC8D3" transform="translate(34,11)"/>
<path d="M0 0 C0.33 0.99 0.66 1.98 1 3 C3.97 3.495 3.97 3.495 7 4 C6.938125 4.763125 6.87625 5.52625 6.8125 6.3125 C6.74101915 9.04525312 6.74101915 9.04525312 8.5 10.8125 C8.995 11.204375 9.49 11.59625 10 12 C8.68 11.67 7.36 11.34 6 11 C5.34 12.32 4.68 13.64 4 15 C-0.875 10.375 -0.875 10.375 -2 7 C-1.40206327 4.64811553 -0.74118205 2.31074405 0 0 Z " fill="#223350" transform="translate(69,69)"/>
<path d="M0 0 C1.65 0 3.3 0 5 0 C3.95118684 2.44723071 3.05551026 3.94996258 1.05859375 5.75 C-4.24467207 11.54635884 -5.40047857 21.35610182 -6 29 C-6.33 29 -6.66 29 -7 29 C-7.38100201 17.6757737 -6.00281883 9.69157392 0 0 Z " fill="#4C2E32" transform="translate(72,58)"/>
<path d="M0 0 C0.99 0.33 1.98 0.66 3 1 C2.34 2.32 1.68 3.64 1 5 C0.01 4.67 -0.98 4.34 -2 4 C-1.67 5.98 -1.34 7.96 -1 10 C-1.99 10.66 -2.98 11.32 -4 12 C-4 13.32 -4 14.64 -4 16 C-4.99 16 -5.98 16 -7 16 C-7.33 16.66 -7.66 17.32 -8 18 C-7.979375 17.21625 -7.95875 16.4325 -7.9375 15.625 C-7.81315937 13.01885039 -7.81315937 13.01885039 -9 11 C-7.77002093 8.40337751 -6.7290725 6.24665671 -5 4 C-2.8125 3.25 -2.8125 3.25 -1 3 C-0.67 2.01 -0.34 1.02 0 0 Z " fill="#F36C23" transform="translate(72,48)"/>
<path d="M0 0 C0.66 -0.33 1.32 -0.66 2 -1 C1.64989059 8.17286652 1.64989059 8.17286652 -1.0625 11.625 C-1.701875 12.07875 -2.34125 12.5325 -3 13 C-3 11.68 -3 10.36 -3 9 C-3.99 9.33 -4.98 9.66 -6 10 C-5.34 7.03 -4.68 4.06 -4 1 C-4.66 0.67 -5.32 0.34 -6 0 C-3.4791665 -1.26041675 -2.64903564 -0.66225891 0 0 Z " fill="#59804F" transform="translate(106,71)"/>
<path d="M0 0 C2.97454134 0.32157204 4.59335278 0.62139742 6.8125 2.6875 C8.3082321 5.60024146 8.22022756 7.76999584 8 11 C7.278125 10.814375 6.55625 10.62875 5.8125 10.4375 C2.87173027 9.98004693 0.85896942 10.26483643 -2 11 C-1.625 9.0625 -1.625 9.0625 -1 7 C-0.34 6.67 0.32 6.34 1 6 C0.67 4.02 0.34 2.04 0 0 Z " fill="#587950" transform="translate(99,61)"/>
<path d="M0 0 C-1.05255642 5.26278209 -2.33743201 10.37487802 -3.9375 15.5 C-4.25589844 16.5209375 -4.57429688 17.541875 -4.90234375 18.59375 C-5.26457031 19.3878125 -5.62679687 20.181875 -6 21 C-6.99 21.33 -7.98 21.66 -9 22 C-10.15941038 18.52176885 -9.70820884 16.54104422 -9 13 C-8.67 14.32 -8.34 15.64 -8 17 C-7.34 17 -6.68 17 -6 17 C-6 14.69 -6 12.38 -6 10 C-5.34 10 -4.68 10 -4 10 C-4 8.02 -4 6.04 -4 4 C-5.32 3.34 -6.64 2.68 -8 2 C-5.09399739 0.74335022 -3.20395416 0 0 0 Z " fill="#E17643" transform="translate(114,43)"/>
<path d="M0 0 C6.6 0 13.2 0 20 0 C20 0.33 20 0.66 20 1 C22.97 1.33 25.94 1.66 29 2 C29 2.33 29 2.66 29 3 C21.08 3 13.16 3 5 3 C5 3.99 5 4.98 5 6 C3.35 5.67 1.7 5.34 0 5 C0 3.35 0 1.7 0 0 Z " fill="#595085" transform="translate(3,4)"/>
<path d="M0 0 C2.99549387 0.32094577 3.95752249 0.9549481 6.0625 3.1875 C9.91624171 8.78164119 11.41595115 12.82818282 11.375 19.6875 C11.38273437 20.99074219 11.39046875 22.29398438 11.3984375 23.63671875 C11 27 11 27 9.4765625 28.95703125 C8.98929688 29.30121094 8.50203125 29.64539063 8 30 C8.02320312 29.09378906 8.04640625 28.18757813 8.0703125 27.25390625 C8.6653062 14.78668186 8.6653062 14.78668186 3.4375 4.0625 C2.633125 3.381875 1.82875 2.70125 1 2 C0.67 1.34 0.34 0.68 0 0 Z " fill="#6F4B78" transform="translate(73,10)"/>
<path d="M0 0 C0 2.31 0 4.62 0 7 C-2.64 7 -5.28 7 -8 7 C-8 7.66 -8 8.32 -8 9 C-9.65 9.33 -11.3 9.66 -13 10 C-12.42822524 6.68370637 -11.54648357 5.18104288 -9 3 C-6.9921875 2.05078125 -6.9921875 2.05078125 -4.875 1.3125 C-4.17117187 1.06113281 -3.46734375 0.80976562 -2.7421875 0.55078125 C-1 0 -1 0 0 0 Z " fill="#292F6F" transform="translate(89,46)"/>
<path d="M0 0 C0.99 0 1.98 0 3 0 C2.34 1.65 1.68 3.3 1 5 C1.99 5.33 2.98 5.66 4 6 C1.69 7.98 -0.62 9.96 -3 12 C-3 11.34 -3 10.68 -3 10 C-3.99 10 -4.98 10 -6 10 C-6.33 10.99 -6.66 11.98 -7 13 C-8.32 12.34 -9.64 11.68 -11 11 C-9.63875 10.1646875 -9.63875 10.1646875 -8.25 9.3125 C-4.57596747 6.69828455 -2.02076161 4.04152322 0 0 Z " fill="#F9E7E1" transform="translate(65,44)"/>
<path d="M0 0 C0.33 0 0.66 0 1 0 C1.33 2.31 1.66 4.62 2 7 C3.32 6.34 4.64 5.68 6 5 C5.9278125 5.62648438 5.855625 6.25296875 5.78125 6.8984375 C5.6884375 7.71570313 5.595625 8.53296875 5.5 9.375 C5.4071875 10.18710938 5.314375 10.99921875 5.21875 11.8359375 C4.96647649 13.96912825 4.96647649 13.96912825 5 16 C6.32 16 7.64 16 9 16 C10.75 18 10.75 18 12 20 C9.03517326 19.86210108 6.78765516 19.71055664 4.5234375 17.66796875 C0.88243925 13.29238314 -0.12748137 10.96339825 -0.0625 5.375 C-0.05347656 4.37210937 -0.04445313 3.36921875 -0.03515625 2.3359375 C-0.02355469 1.56507812 -0.01195313 0.79421875 0 0 Z " fill="#2A1C31" transform="translate(66,79)"/>
<path d="M0 0 C2.31 1.98 4.62 3.96 7 6 C3 7 3 7 1 6 C1 6.99 1 7.98 1 9 C1.99 9 2.98 9 4 9 C4 9.66 4 10.32 4 11 C7.63 11 11.26 11 15 11 C15 11.33 15 11.66 15 12 C7.5027982 12.44983211 1.22890701 12.62094355 -5 8 C-7 5.75 -7 5.75 -8 4 C-5.33333333 5.33333333 -2.66666667 6.66666667 0 8 C0 5.36 0 2.72 0 0 Z " fill="#C55F35" transform="translate(67,92)"/>
<path d="M0 0 C0.33 0 0.66 0 1 0 C1.03738281 0.79664062 1.07476562 1.59328125 1.11328125 2.4140625 C1.48211462 8.35878857 1.9630142 12.75429726 5 18 C4.67 18.66 4.34 19.32 4 20 C3.01 20.33 2.02 20.66 1 21 C1 20.01 1 19.02 1 18 C0.01 18 -0.98 18 -2 18 C-2 17.34 -2 16.68 -2 16 C-1.01 16 -0.02 16 1 16 C0.67 15.34 0.34 14.68 0 14 C-0.07116382 11.62597499 -0.08409085 9.24999323 -0.0625 6.875 C-0.05347656 5.59367187 -0.04445312 4.31234375 -0.03515625 2.9921875 C-0.02355469 2.00476563 -0.01195312 1.01734375 0 0 Z M-3 18 C-2.01 19.32 -1.02 20.64 0 22 C-4.29 22 -8.58 22 -13 22 C-13 21.67 -13 21.34 -13 21 C-9.7 21 -6.4 21 -3 21 C-3 20.01 -3 19.02 -3 18 Z " fill="#402A38" transform="translate(53,76)"/>
<path d="M0 0 C6.93 0.495 6.93 0.495 14 1 C14 1.66 14 2.32 14 3 C14.66 3 15.32 3 16 3 C16 2.34 16 1.68 16 1 C18.97 1.495 18.97 1.495 22 2 C20.8125 3.5625 20.8125 3.5625 19 5 C16.3125 4.6875 16.3125 4.6875 14 4 C14 4.66 14 5.32 14 6 C13.34 6 12.68 6 12 6 C12 5.34 12 4.68 12 4 C9.36 4 6.72 4 4 4 C4 3.34 4 2.68 4 2 C2.68 1.67 1.36 1.34 0 1 C0 0.67 0 0.34 0 0 Z " fill="#223062" transform="translate(79,81)"/>
<path d="M0 0 C2.97 0 5.94 0 9 0 C8.67 1.65 8.34 3.3 8 5 C7.01 5.33 6.02 5.66 5 6 C4.26676204 8.01508358 4.26676204 8.01508358 4 10 C2.68 10.33 1.36 10.66 0 11 C0.33 10.34 0.66 9.68 1 9 C1.66 9 2.32 9 3 9 C2.34 8.01 1.68 7.02 1 6 C0.01 6.495 0.01 6.495 -1 7 C-1 6.01 -1 5.02 -1 4 C-0.34 4 0.32 4 1 4 C0.67 2.68 0.34 1.36 0 0 Z " fill="#346564" transform="translate(80,60)"/>
<path d="M0 0 C1.98 0 3.96 0 6 0 C6.33 1.98 6.66 3.96 7 6 C3.375 9 3.375 9 0 9 C0 6.03 0 3.06 0 0 Z " fill="#F8E5D0" transform="translate(90,45)"/>
<path d="M0 0 C0.33 0 0.66 0 1 0 C2.32972073 4.98645274 2.06829634 9.87777466 2 15 C5.3 15 8.6 15 12 15 C12.33 15.66 12.66 16.32 13 17 C11.02090602 17.02686553 9.04171029 17.04633375 7.0625 17.0625 C5.96035156 17.07410156 4.85820313 17.08570312 3.72265625 17.09765625 C1 17 1 17 0 16 C-0.07319621 13.30345146 -0.09242537 10.63308542 -0.0625 7.9375 C-0.05798828 7.17888672 -0.05347656 6.42027344 -0.04882812 5.63867188 C-0.0370068 3.75908129 -0.01907078 1.87953101 0 0 Z " fill="#281D33" transform="translate(37,80)"/>
<path d="M0 0 C0.99773438 0.02320313 1.99546875 0.04640625 3.0234375 0.0703125 C4.52777344 0.09738281 4.52777344 0.09738281 6.0625 0.125 C6.83335938 0.14820313 7.60421875 0.17140625 8.3984375 0.1953125 C8.3984375 0.5253125 8.3984375 0.8553125 8.3984375 1.1953125 C9.97625 1.6284375 9.97625 1.6284375 11.5859375 2.0703125 C14.62662461 2.96756443 17.48556094 3.95954669 20.3984375 5.1953125 C19.7384375 5.8553125 19.0784375 6.5153125 18.3984375 7.1953125 C17.57601562 6.91816406 16.75359375 6.64101562 15.90625 6.35546875 C9.03440863 4.12569112 2.62541095 2.5215867 -4.6015625 2.1953125 C-2.6015625 0.1953125 -2.6015625 0.1953125 0 0 Z " fill="#3E2C69" transform="translate(52.6015625,2.8046875)"/>
<path d="M0 0 C2.0625 0.4375 2.0625 0.4375 4 1 C3.319375 1.37125 2.63875 1.7425 1.9375 2.125 C-1.15698588 4.10020375 -3.74283906 6.32662273 -6.44921875 8.79296875 C-8 10 -8 10 -10 10 C-10 8.02 -10 6.04 -10 4 C-9.36191406 3.79503906 -8.72382812 3.59007813 -8.06640625 3.37890625 C-7.24011719 3.10949219 -6.41382812 2.84007813 -5.5625 2.5625 C-4.73878906 2.29566406 -3.91507812 2.02882813 -3.06640625 1.75390625 C-1.03780412 1.17844506 -1.03780412 1.17844506 0 0 Z " fill="#E5C8BB" transform="translate(100,87)"/>
<path d="M0 0 C0.92232422 0.63228516 0.92232422 0.63228516 1.86328125 1.27734375 C3.07564453 2.09912109 3.07564453 2.09912109 4.3125 2.9375 C5.11300781 3.48277344 5.91351563 4.02804688 6.73828125 4.58984375 C11.12846131 7.32707173 15.18957432 7.11924501 20.1875 7.0625 C21.31188477 7.05573242 21.31188477 7.05573242 22.45898438 7.04882812 C24.30602383 7.03706354 26.15302213 7.01912865 28 7 C24.67949283 10.32050717 20.01484547 9.43481175 15.54296875 9.44042969 C10.31928721 9.31848466 6.57020102 8.60880609 2.25 5.484375 C0.75597579 3.71022125 0.38714406 2.26479274 0 0 Z " fill="#351817" transform="translate(58,96)"/>
<path d="M0 0 C0.33 0 0.66 0 1 0 C1 3.96 1 7.92 1 12 C2.32 12.33 3.64 12.66 5 13 C5.33 13.66 5.66 14.32 6 15 C3.03 15.66 0.06 16.32 -3 17 C-2.125 12.125 -2.125 12.125 -1 11 C-0.76636119 9.15108054 -0.58696365 7.29511969 -0.4375 5.4375 C-0.35371094 4.42558594 -0.26992187 3.41367187 -0.18359375 2.37109375 C-0.12300781 1.58863281 -0.06242187 0.80617188 0 0 Z " fill="#413064" transform="translate(84,26)"/>
<path d="M0 0 C0.99 0.33 1.98 0.66 3 1 C3 3.31 3 5.62 3 8 C-1.86051596 10.59227518 -6.65271133 10.18689553 -12 10 C-11.67 9.01 -11.34 8.02 -11 7 C-6.71 7 -2.42 7 2 7 C2 5.35 2 3.7 2 2 C0.68 1.67 -0.64 1.34 -2 1 C-1.34 0.67 -0.68 0.34 0 0 Z " fill="#432B35" transform="translate(87,90)"/>
<path d="M0 0 C0.66 0.33 1.32 0.66 2 1 C2 1.99 2 2.98 2 4 C-1.50907787 7.08114155 -3.15068663 8.05479441 -7.875 7.75 C-8.90625 7.5025 -9.9375 7.255 -11 7 C-10.01 6.67 -9.02 6.34 -8 6 C-8 5.01 -8 4.02 -8 3 C-7.34 3 -6.68 3 -6 3 C-5.67 2.34 -5.34 1.68 -5 1 C-5 2.32 -5 3.64 -5 5 C-4.34 5 -3.68 5 -3 5 C-3 4.34 -3 3.68 -3 3 C-2.34 3 -1.68 3 -1 3 C-0.67 2.01 -0.34 1.02 0 0 Z " fill="#5DA260" transform="translate(81,65)"/>
<path d="M0 0 C0.99 0 1.98 0 3 0 C2.42655063 2.86724686 2.1385485 3.8614515 0 6 C-2.1640625 6.1953125 -2.1640625 6.1953125 -4.625 6.125 C-5.44226562 6.10695313 -6.25953125 6.08890625 -7.1015625 6.0703125 C-7.72804687 6.04710937 -8.35453125 6.02390625 -9 6 C-8.34 4.68 -7.68 3.36 -7 2 C-5.02 2 -3.04 2 -1 2 C-0.67 1.34 -0.34 0.68 0 0 Z " fill="#FCFAFB" transform="translate(59,54)"/>
<path d="M0 0 C1.32 0 2.64 0 4 0 C4 0.99 4 1.98 4 3 C3.34 3 2.68 3 2 3 C1.95875 3.7425 1.9175 4.485 1.875 5.25 C0.63175128 9.15735313 -1.44364995 10.15069797 -5 12 C-5.99 11.67 -6.98 11.34 -8 11 C-7.34 10.34 -6.68 9.68 -6 9 C-5.01 9 -4.02 9 -3 9 C-3 8.34 -3 7.68 -3 7 C-2.34 6.34 -1.68 5.68 -1 5 C-0.35232207 2.42938689 -0.35232207 2.42938689 0 0 Z " fill="#2E2E6E" transform="translate(59,44)"/>
<path d="M0 0 C0.33 0 0.66 0 1 0 C1.75064488 16.01375752 1.75064488 16.01375752 -3 23 C-3.66 23.33 -4.32 23.66 -5 24 C-5 23.01 -5 22.02 -5 21 C-4.34 21 -3.68 21 -3 21 C-2.93941406 20.36191406 -2.87882812 19.72382812 -2.81640625 19.06640625 C-2.69072266 17.82697266 -2.69072266 17.82697266 -2.5625 16.5625 C-2.48128906 15.73878906 -2.40007813 14.91507813 -2.31640625 14.06640625 C-2 12 -2 12 -1 11 C-0.76636119 9.15108054 -0.58696365 7.29511969 -0.4375 5.4375 C-0.35371094 4.42558594 -0.26992187 3.41367187 -0.18359375 2.37109375 C-0.12300781 1.58863281 -0.06242187 0.80617188 0 0 Z " fill="#4D3464" transform="translate(66,26)"/>
<path d="M0 0 C1.32 0 2.64 0 4 0 C4 0.66 4 1.32 4 2 C4.66 2 5.32 2 6 2 C6 3.98 6 5.96 6 8 C3.23737447 7.6189482 2.15856106 7.16402868 0.1875 5.125 C-0.204375 4.42375 -0.59625 3.7225 -1 3 C-0.67 2.01 -0.34 1.02 0 0 Z " fill="#F26C23" transform="translate(61,92)"/>
<path d="M0 0 C0 0.66 0 1.32 0 2 C-0.66 2 -1.32 2 -2 2 C-2 1.34 -2 0.68 -2 0 C-4.33075929 0.95865509 -4.33075929 0.95865509 -6 4 C-6 3.01 -6 2.02 -6 1 C-7.670625 1.2784375 -7.670625 1.2784375 -9.375 1.5625 C-13 2 -13 2 -15 1 C-14 -1 -14 -1 -12.375 -1.625 C-7.57473902 -2.38293594 -4.11642919 -2.74428613 0 0 Z " fill="#253756" transform="translate(95,59)"/>
<path d="M0 0 C0.99 0.99 1.98 1.98 3 3 C2.01 3.66 1.02 4.32 0 5 C-0.58481121 7.88595946 -0.58481121 7.88595946 -0.6875 11.125 C-0.75324219 12.22070312 -0.81898437 13.31640625 -0.88671875 14.4453125 C-0.94279297 15.70988281 -0.94279297 15.70988281 -1 17 C-0.34 17.33 0.32 17.66 1 18 C-0.32 17.67 -1.64 17.34 -3 17 C-3.02715383 15.25008666 -3.04646551 13.50005055 -3.0625 11.75 C-3.07410156 10.77546875 -3.08570312 9.8009375 -3.09765625 8.796875 C-3.01195577 6.34241322 -2.70706066 4.33831086 -2 2 C-1.34 2 -0.68 2 0 2 C0 1.34 0 0.68 0 0 Z " fill="#5F9C6A" transform="translate(98,64)"/>
<path d="M0 0 C3.96 0 7.92 0 12 0 C10.68 0.33 9.36 0.66 8 1 C8 1.99 8 2.98 8 4 C5.36 4 2.72 4 0 4 C0 2.68 0 1.36 0 0 Z " fill="#F5E2EF" transform="translate(8,7)"/>
<path d="M0 0 C0.66 0 1.32 0 2 0 C3.00496852 3.01490557 3.10335303 5.04181692 3.0625 8.1875 C3.05347656 9.08855469 3.04445313 9.98960938 3.03515625 10.91796875 C3.02355469 11.60503906 3.01195313 12.29210937 3 13 C2.01 13 1.02 13 0 13 C0 8.71 0 4.42 0 0 Z M4 0 C4.66 0 5.32 0 6 0 C6 0.99 6 1.98 6 3 C5.01 2.67 4.02 2.34 3 2 C3.33 1.34 3.66 0.68 4 0 Z " fill="#F6E3D4" transform="translate(90,101)"/>
<path d="M0 0 C-1 3 -1 3 -2.8125 4.1875 C-5 5 -5 5 -9 5 C-9.33 5.99 -9.66 6.98 -10 8 C-10.66 8 -11.32 8 -12 8 C-12 8.66 -12 9.32 -12 10 C-12.66 10 -13.32 10 -14 10 C-12.55224845 6.40018534 -10.79045708 4.84896717 -7.5625 2.75 C-6.78003906 2.22921875 -5.99757813 1.7084375 -5.19140625 1.171875 C-3 0 -3 0 0 0 Z " fill="#5A334E" transform="translate(89,44)"/>
<path d="M0 0 C0.33 0 0.66 0 1 0 C1 3.63 1 7.26 1 11 C2.65 11.33 4.3 11.66 6 12 C5.67 12.66 5.34 13.32 5 14 C-0.94 13.01 -0.94 13.01 -7 12 C-3 10 -3 10 0 10 C0 6.7 0 3.4 0 0 Z " fill="#53685D" transform="translate(89,44)"/>
<path d="M0 0 C0.33 0 0.66 0 1 0 C1.33 5.28 1.66 10.56 2 16 C1.34 16 0.68 16 0 16 C-1.50331448 13.61238289 -2.07267413 12.46026949 -1.625 9.625 C-1.41875 8.75875 -1.2125 7.8925 -1 7 C-1 5.9275 -1 4.855 -1 3.75 C-1 1 -1 1 0 0 Z " fill="#211F40" transform="translate(52,76)"/>
<path d="M0 0 C2.4375 1.1875 2.4375 1.1875 5 3 C5.8125 5.6875 5.8125 5.6875 6 8 C5.67 7.34 5.34 6.68 5 6 C4.34 6 3.68 6 3 6 C2.67 6.99 2.34 7.98 2 9 C1.34 8.67 0.68 8.34 0 8 C0 5.36 0 2.72 0 0 Z " fill="#1B2146" transform="translate(67,78)"/>
<path d="M0 0 C1.9375 0.75 1.9375 0.75 4 2 C4.75 4.125 4.75 4.125 5 6 C3.02 6.99 1.04 7.98 -1 9 C-1.09765625 2.84765625 -1.09765625 2.84765625 -1 1 C-0.67 0.67 -0.34 0.34 0 0 Z " fill="#293884" transform="translate(4,8)"/>
<path d="M0 0 C0.763125 0.309375 1.52625 0.61875 2.3125 0.9375 C4.18789677 1.67893593 6.08684652 2.36228217 8 3 C8 3.66 8 4.32 8 5 C5.03 5 2.06 5 -1 5 C-0.67 3.35 -0.34 1.7 0 0 Z " fill="#598F5B" transform="translate(75,80)"/>
<path d="M0 0 C2.97 0.495 2.97 0.495 6 1 C5.690625 1.598125 5.38125 2.19625 5.0625 2.8125 C3.89790296 5.08956772 3.89790296 5.08956772 3 8 C0.37613513 4.93882432 0 4.26826873 0 0 Z " fill="#3A5964" transform="translate(70,72)"/>
<path d="M0 0 C-0.33 0.99 -0.66 1.98 -1 3 C-1.556875 2.814375 -2.11375 2.62875 -2.6875 2.4375 C-5.399133 1.92448835 -7.34371039 2.3359276 -10 3 C-9.67 1.68 -9.34 0.36 -9 -1 C-5.22102349 -2.0497157 -3.35080929 -2.10976881 0 0 Z " fill="#2F5A4C" transform="translate(107,69)"/>
<path d="M0 0 C2.31 0 4.62 0 7 0 C6.67 1.98 6.34 3.96 6 6 C5.34 6 4.68 6 4 6 C4 5.01 4 4.02 4 3 C3.01 3.33 2.02 3.66 1 4 C0.67 2.68 0.34 1.36 0 0 Z " fill="#F76D22" transform="translate(104,47)"/>
<path d="M0 0 C2.0625 0.4375 2.0625 0.4375 4 1 C4 2.65 4 4.3 4 6 C2.0625 6.5625 2.0625 6.5625 0 7 C-1 6 -1 6 -1.125 3.5 C-1 1 -1 1 0 0 Z " fill="#1B1F3F" transform="translate(71,87)"/>
<path d="M0 0 C0.33 0 0.66 0 1 0 C1 6.6 1 13.2 1 20 C0.67 20 0.34 20 0 20 C-0.06058594 19.25234375 -0.12117188 18.5046875 -0.18359375 17.734375 C-0.26738281 16.74953125 -0.35117188 15.7646875 -0.4375 14.75 C-0.51871094 13.77546875 -0.59992188 12.8009375 -0.68359375 11.796875 C-0.91958013 9.07735787 -0.91958013 9.07735787 -1.59375 6.8125 C-2.19366443 4.13595871 -1.1403147 2.41478406 0 0 Z " fill="#253273" transform="translate(88,19)"/>
<path d="M0 0 C0.66 0.33 1.32 0.66 2 1 C2.625 4.0625 2.625 4.0625 3 7 C2.34 7 1.68 7 1 7 C0.67 6.34 0.34 5.68 0 5 C-0.66 5 -1.32 5 -2 5 C-2 5.99 -2 6.98 -2 8 C-2.66 8 -3.32 8 -4 8 C-4 6.68 -4 5.36 -4 4 C-3.34 4 -2.68 4 -2 4 C-1.34 2.68 -0.68 1.36 0 0 Z " fill="#4F9445" transform="translate(75,63)"/>
<path d="M0 0 C0.70511719 0.31710938 1.41023438 0.63421875 2.13671875 0.9609375 C5.12505879 2.04538286 7.65069658 2.3964359 10.8125 2.625 C12.27623047 2.73714844 12.27623047 2.73714844 13.76953125 2.8515625 C14.50558594 2.90054688 15.24164063 2.94953125 16 3 C16 3.33 16 3.66 16 4 C13.89590361 4.02701408 11.79170822 4.04640223 9.6875 4.0625 C8.51574219 4.07410156 7.34398438 4.08570312 6.13671875 4.09765625 C3 4 3 4 0 3 C0 2.01 0 1.02 0 0 Z " fill="#F26D2A" transform="translate(68,98)"/>
<path d="M0 0 C0 0.33 0 0.66 0 1 C-1.670625 1.433125 -1.670625 1.433125 -3.375 1.875 C-7.00291092 2.69241329 -7.00291092 2.69241329 -9 5 C-9.99 3.68 -10.98 2.36 -12 1 C-7.67265609 -1.22923777 -4.71599818 -0.92470553 0 0 Z " fill="#174A8A" transform="translate(89,71)"/>
<path d="M0 0 C-1.32 2.97 -2.64 5.94 -4 9 C-5 6 -5 6 -5 3 C-5.99 2.34 -6.98 1.68 -8 1 C-5.07175348 0.02391783 -3.04386724 -0.08226668 0 0 Z " fill="#532C49" transform="translate(60,60)"/>
<path d="M0 0 C3 0 3 0 4.75 1.1875 C6 3 6 3 5.6875 5.6875 C5.460625 6.450625 5.23375 7.21375 5 8 C4.34 8 3.68 8 3 8 C1.92474806 5.34771188 0.90543849 2.71631546 0 0 Z " fill="#152039" transform="translate(51,94)"/>
<path d="M0 0 C1.53202706 0.25195908 3.05257128 0.57596777 4.5625 0.9375 C5.38878906 1.13214844 6.21507812 1.32679687 7.06640625 1.52734375 C8.02353516 1.76130859 8.02353516 1.76130859 9 2 C9 2.33 9 2.66 9 3 C6.03 3 3.06 3 0 3 C0 4.65 0 6.3 0 8 C-0.33 8 -0.66 8 -1 8 C-1.04241723 5.66705225 -1.04092937 3.33297433 -1 1 C-0.67 0.67 -0.34 0.34 0 0 Z " fill="#412D3D" transform="translate(9,95)"/>
<path d="M0 0 C2.64 0 5.28 0 8 0 C8 0.99 8 1.98 8 3 C5.69 3 3.38 3 1 3 C0.67 2.01 0.34 1.02 0 0 Z " fill="#F9ECEF" transform="translate(42,98)"/>
<path d="M0 0 C0.99 0 1.98 0 3 0 C3 1.98 3 3.96 3 6 C1.68 6.33 0.36 6.66 -1 7 C-0.67 4.69 -0.34 2.38 0 0 Z " fill="#52913E" transform="translate(102,72)"/>
<path d="M0 0 C1.49341969 2.98683937 0.40648676 4.95160978 -0.4375 8.125 C-0.72496094 9.22070312 -1.01242188 10.31640625 -1.30859375 11.4453125 C-1.53675781 12.28835937 -1.76492187 13.13140625 -2 14 C-2.33 14 -2.66 14 -3 14 C-3.32374517 8.49633208 -3.53286034 4.56327794 0 0 Z " fill="#2E2129" transform="translate(71,60)"/>
<path d="M0 0 C0.33 1.32 0.66 2.64 1 4 C1.99 3.67 2.98 3.34 4 3 C4 4.65 4 6.3 4 8 C2.68 8.33 1.36 8.66 0 9 C0 6.03 0 3.06 0 0 Z " fill="#203A65" transform="translate(84,62)"/>
<path d="M0 0 C1.65 0 3.3 0 5 0 C4.67 1.65 4.34 3.3 4 5 C3.01 5.33 2.02 5.66 1 6 C0.67 4.02 0.34 2.04 0 0 Z " fill="#568872" transform="translate(84,60)"/>
<path d="M0 0 C5.26053037 -0.31563182 8.44573816 0.33409063 13 3 C12.34 3.66 11.68 4.32 11 5 C7.37 3.68 3.74 2.36 0 1 C0 0.67 0 0.34 0 0 Z " fill="#584372" transform="translate(60,5)"/>
<path d="M0 0 C2.31 0.33 4.62 0.66 7 1 C7 2.32 7 3.64 7 5 C5.68 4.67 4.36 4.34 3 4 C3 3.01 3 2.02 3 1 C2.01 0.67 1.02 0.34 0 0 Z " fill="#4D3E70" transform="translate(12,11)"/>
<path d="M0 0 C2.31 0 4.62 0 7 0 C6.01 0.495 6.01 0.495 5 1 C5 1.66 5 2.32 5 3 C3.35 3.33 1.7 3.66 0 4 C0 2.68 0 1.36 0 0 Z " fill="#ECD4DB" transform="translate(9,98)"/>
<path d="M0 0 C2.475 0.495 2.475 0.495 5 1 C5 1.66 5 2.32 5 3 C4.34 3 3.68 3 3 3 C3 3.99 3 4.98 3 6 C2.34 6 1.68 6 1 6 C0.67 4.02 0.34 2.04 0 0 Z " fill="#43753E" transform="translate(99,61)"/>
<path d="M0 0 C0.33 1.32 0.66 2.64 1 4 C1.99 4 2.98 4 4 4 C3.6875 5.9375 3.6875 5.9375 3 8 C2.01 8.33 1.02 8.66 0 9 C-1.15941038 5.52176885 -0.70820884 3.54104422 0 0 Z " fill="#D8875E" transform="translate(105,56)"/>
<path d="M0 0 C0.66 0 1.32 0 2 0 C2 0.66 2 1.32 2 2 C3.65 2 5.3 2 7 2 C5 4 5 4 1.375 4.125 C0.26125 4.08375 -0.8525 4.0425 -2 4 C-1.34 2.68 -0.68 1.36 0 0 Z " fill="#3C2E4C" transform="translate(74,54)"/>
<path d="M0 0 C6.4 -0.49230769 6.4 -0.49230769 9.4375 2 C10.2109375 2.99 10.2109375 2.99 11 4 C10.01 4.33 9.02 4.66 8 5 C7.608125 4.525625 7.21625 4.05125 6.8125 3.5625 C4.59191626 1.64820367 2.86624291 1.38733012 0 1 C0 0.67 0 0.34 0 0 Z " fill="#FCD0B3" transform="translate(90,44)"/>
<path d="M0 0 C3.09998746 0.33214151 4.0545012 1.0545012 6.3125 3.3125 C8 6 8 6 7.75 8.3125 C7.5025 8.869375 7.255 9.42625 7 10 C6.401875 8.906875 5.80375 7.81375 5.1875 6.6875 C3.70955303 4.08925871 2.30177067 1.95650507 0 0 Z " fill="#514074" transform="translate(73,10)"/>
<path d="M0 0 C5.53846154 0.49230769 5.53846154 0.49230769 7.875 3.0625 C8.431875 4.0215625 8.431875 4.0215625 9 5 C3.46153846 4.50769231 3.46153846 4.50769231 1.125 1.9375 C0.75375 1.298125 0.3825 0.65875 0 0 Z " fill="#331A1A" transform="translate(69,94)"/>
<path d="M0 0 C0 1.98 0 3.96 0 6 C-0.99 6.495 -0.99 6.495 -2 7 C-2 5.68 -2 4.36 -2 3 C-3.32 2.67 -4.64 2.34 -6 2 C-2.25 0 -2.25 0 0 0 Z " fill="#263840" transform="translate(103,80)"/>
<path d="M0 0 C0.99 0 1.98 0 3 0 C2.67 1.32 2.34 2.64 2 4 C0.35 4.33 -1.3 4.66 -3 5 C-1.6875 2.5 -1.6875 2.5 0 0 Z " fill="#054F9A" transform="translate(88,73)"/>
<path d="M0 0 C-1.2491742 3.45925163 -2.67527795 6.14693203 -5 9 C-5 6.36 -5 3.72 -5 1 C-2 0 -2 0 0 0 Z " fill="#D16B3C" transform="translate(72,58)"/>
<path d="M0 0 C0.99 0 1.98 0 3 0 C2.75 1.875 2.75 1.875 2 4 C-0.0625 5.25 -0.0625 5.25 -2 6 C-2.33 5.34 -2.66 4.68 -3 4 C-2.34 4 -1.68 4 -1 4 C-0.67 2.68 -0.34 1.36 0 0 Z " fill="#FCF1F2" transform="translate(59,54)"/>
<path d="M0 0 C0.99 0 1.98 0 3 0 C3.33 2.31 3.66 4.62 4 7 C3.01 7 2.02 7 1 7 C0.67 4.69 0.34 2.38 0 0 Z " fill="#FDD4B6" transform="translate(101,50)"/>
<path d="M0 0 C1.32 0.33 2.64 0.66 4 1 C1.1875 3.0625 1.1875 3.0625 -2 5 C-2.99 4.67 -3.98 4.34 -5 4 C-4.34 3.34 -3.68 2.68 -3 2 C-2.01 2 -1.02 2 0 2 C0 1.34 0 0.68 0 0 Z " fill="#43315F" transform="translate(56,51)"/>
<path d="M0 0 C0.66 0.33 1.32 0.66 2 1 C1.6875 2.9375 1.6875 2.9375 1 5 C0.01 5.33 -0.98 5.66 -2 6 C-2.66 5.34 -3.32 4.68 -4 4 C-2.68 2.68 -1.36 1.36 0 0 Z " fill="#4C7F52" transform="translate(79,57)"/>
<path d="M0 0 C-0.33 0.99 -0.66 1.98 -1 3 C0.32 3.66 1.64 4.32 3 5 C1.02 5 -0.96 5 -3 5 C-3.66 3.68 -4.32 2.36 -5 1 C-2 0 -2 0 0 0 Z " fill="#EBD3D8" transform="translate(52,56)"/>
<path d="M0 0 C0.99 0 1.98 0 3 0 C1.55746343 3.36591866 -0.33264727 5.51047079 -3 8 C-3.66 7.67 -4.32 7.34 -5 7 C-4.360625 6.21625 -3.72125 5.4325 -3.0625 4.625 C-1.01857687 2.20460719 -1.01857687 2.20460719 0 0 Z " fill="#F1E0E6" transform="translate(65,44)"/>
<path d="M0 0 C1.9375 0.375 1.9375 0.375 4 1 C4.33 1.66 4.66 2.32 5 3 C3.35 3.66 1.7 4.32 0 5 C0 3.35 0 1.7 0 0 Z " fill="#FADFC3" transform="translate(90,92)"/>
<path d="M0 0 C0.33 0 0.66 0 1 0 C1 3.3 1 6.6 1 10 C0.01 10.33 -0.98 10.66 -2 11 C-2 8 -2 8 -1 7 C-0.63239269 4.67182036 -0.29758419 2.3381615 0 0 Z " fill="#1F1E41" transform="translate(19,80)"/>
<path d="M0 0 C-0.598125 0.2475 -1.19625 0.495 -1.8125 0.75 C-4.28647521 2.16370012 -5.43370255 3.65055383 -7 6 C-7 4.02 -7 2.04 -7 0 C-3.86650268 -1.04449911 -3.01031744 -0.93423645 0 0 Z " fill="#27275F" transform="translate(44,64)"/>
</svg>
